<?xml version="1.0" encoding="utf-8"?>
<!-- Generator: Adobe Illustrator 16.0.3, SVG Export Plug-In . SVG Version: 6.00 Build 0)  -->
<!DOCTYPE svg PUBLIC "-//W3C//DTD SVG 1.0//EN" "http://www.w3.org/TR/2001/REC-SVG-20010904/DTD/svg10.dtd">
<svg version="1.0" id="Warstwa_1" xmlns="http://www.w3.org/2000/svg" xmlns:xlink="http://www.w3.org/1999/xlink" x="0px" y="0px"
	 width="320px" height="50px" viewBox="0 0 320 50" enable-background="new 0 0 320 50" xml:space="preserve">
<path fill="none" stroke="#1D1D1B" stroke-width="1.7009" stroke-miterlimit="10" d="M291.43,5.25H28.569
	C18.33,5.25,10,13.58,10,23.819v2.363C10,36.42,18.33,44.75,28.569,44.75h262.86c10.24,0,18.57-8.33,18.57-18.568v-2.363
	C310,13.58,301.67,5.25,291.43,5.25z"/>
<g>
	<path fill="#1D1D1B" d="M26.485,33.361v-4.285h9.567c0.714,0,1.203-0.076,1.467-0.229c0.264-0.154,0.396-0.459,0.396-0.918V16.498
		h6.455v12.834c0,0.834-0.111,1.51-0.332,2.027c-0.221,0.52-0.587,0.928-1.097,1.225c-0.511,0.299-1.179,0.502-2.003,0.613
		c-0.825,0.111-1.833,0.164-3.023,0.164H26.485z"/>
	<path fill="#1D1D1B" d="M67.025,29.332c0,0.834-0.115,1.514-0.345,2.041s-0.6,0.936-1.109,1.223
		c-0.511,0.291-1.178,0.49-2.003,0.602s-1.833,0.164-3.023,0.164H46.768V16.498h13.777c1.19,0,2.194,0.056,3.011,0.166
		c0.816,0.111,1.471,0.315,1.965,0.612c0.493,0.298,0.846,0.71,1.059,1.237s0.318,1.199,0.318,2.016v2.092
		c0,0.681-0.183,1.203-0.548,1.568c-0.366,0.366-0.787,0.617-1.263,0.753c0.493,0.12,0.939,0.371,1.339,0.754
		c0.4,0.381,0.6,0.955,0.6,1.721V29.332z M53.248,20.784v2.195h6.327c0.459,0,0.762-0.094,0.906-0.281
		c0.145-0.187,0.217-0.476,0.217-0.867c0-0.391-0.081-0.664-0.242-0.816c-0.162-0.153-0.456-0.23-0.881-0.23H53.248z M53.248,26.881
		v2.195h6.455c0.392,0,0.654-0.084,0.791-0.256c0.136-0.17,0.204-0.449,0.204-0.842c0-0.441-0.081-0.734-0.242-0.881
		c-0.162-0.145-0.413-0.217-0.753-0.217H53.248z"/>
	<path fill="#1D1D1B" d="M77.357,33.361v-4.285H90.65c0.34,0,0.564-0.084,0.676-0.256c0.11-0.17,0.165-0.449,0.165-0.842
		c0-0.34-0.063-0.582-0.191-0.727c-0.127-0.145-0.344-0.217-0.649-0.217h-8.42c-1.616,0-2.832-0.311-3.648-0.932
		c-0.816-0.621-1.225-1.483-1.225-2.589v-3.036c0-0.714,0.08-1.326,0.242-1.836c0.162-0.511,0.446-0.922,0.854-1.237
		s0.974-0.545,1.697-0.689c0.723-0.145,1.646-0.217,2.768-0.217h12.936v4.236h-11.66c-0.34,0-0.561,0.084-0.663,0.255
		c-0.102,0.17-0.153,0.425-0.153,0.765c0,0.341,0.068,0.597,0.205,0.767c0.136,0.17,0.373,0.254,0.714,0.254h8.292
		c1.735,0,2.985,0.35,3.751,1.047c0.765,0.698,1.147,1.683,1.147,2.96v2.551c0,0.697-0.089,1.297-0.268,1.797
		c-0.179,0.504-0.477,0.92-0.894,1.252c-0.416,0.332-0.961,0.578-1.633,0.74c-0.672,0.16-1.501,0.24-2.487,0.24H77.357z"/>
	<path fill="#1D1D1B" d="M104.887,33.361V20.784h-6.124v-4.286h18.676v4.286h-6.098v12.577H104.887z"/>
	<path fill="#1D1D1B" d="M130.093,33.361l-0.918-2.447h-6.123l-0.944,2.447h-7.066l6.837-16.863h8.215l6.838,16.863H130.093z
		 M126.088,21.396l-1.812,5.385h3.622L126.088,21.396z"/>
	<path fill="#1D1D1B" d="M138.359,33.361V16.498h6.48v12.578h8.726v4.285H138.359z"/>
	<path fill="#1D1D1B" d="M163.336,33.361v-4.285h13.293c0.339,0,0.564-0.084,0.676-0.256c0.11-0.17,0.166-0.449,0.166-0.842
		c0-0.34-0.063-0.582-0.192-0.727c-0.127-0.145-0.344-0.217-0.649-0.217h-8.42c-1.616,0-2.833-0.311-3.648-0.932
		c-0.816-0.621-1.225-1.483-1.225-2.589v-3.036c0-0.714,0.081-1.326,0.243-1.836c0.161-0.511,0.445-0.922,0.854-1.237
		c0.407-0.315,0.973-0.545,1.696-0.689c0.723-0.145,1.645-0.217,2.769-0.217h12.935v4.236h-11.659c-0.341,0-0.562,0.084-0.664,0.255
		c-0.102,0.17-0.152,0.425-0.152,0.765c0,0.341,0.067,0.597,0.203,0.767c0.137,0.17,0.374,0.254,0.715,0.254h8.293
		c1.734,0,2.984,0.35,3.749,1.047c0.766,0.698,1.148,1.683,1.148,2.96v2.551c0,0.697-0.09,1.297-0.268,1.797
		c-0.179,0.504-0.477,0.92-0.894,1.252c-0.416,0.332-0.96,0.578-1.633,0.74c-0.672,0.16-1.501,0.24-2.486,0.24H163.336z"/>
	<path fill="#1D1D1B" d="M185.508,33.361V16.498h20.002v4.286h-13.522v2.119h6.608v4.031h-6.608v2.143h13.522v4.285H185.508z"/>
	<path fill="#1D1D1B" d="M221.354,33.361V28.77c0-0.391-0.103-0.68-0.307-0.867c-0.203-0.188-0.629-0.279-1.276-0.279h-5.791v5.738
		h-6.429V16.498h14.262c1.19,0,2.168,0.068,2.934,0.205c0.766,0.136,1.36,0.361,1.786,0.676c0.425,0.314,0.719,0.727,0.881,1.237
		c0.16,0.51,0.241,1.148,0.241,1.914v2.627c0,0.749-0.165,1.332-0.497,1.748c-0.331,0.416-0.77,0.703-1.313,0.855
		c0.493,0.119,0.936,0.379,1.326,0.777c0.392,0.4,0.587,0.949,0.587,1.646v5.178H221.354z M221.354,21.78
		c0-0.323-0.072-0.57-0.217-0.74c-0.145-0.169-0.481-0.255-1.008-0.255h-6.149v2.96h6.149c0.562,0,0.905-0.094,1.033-0.281
		c0.127-0.187,0.191-0.476,0.191-0.867V21.78z"/>
	<path fill="#1D1D1B" d="M248.652,33.361l-3.011-8.7l-2.985,8.7h-7.935l-6.302-16.863h7.042l3.521,10.689l3.597-10.689h6.838
		l3.546,10.689l3.547-10.689h6.43l-6.327,16.863H248.652z"/>
	<path fill="#1D1D1B" d="M264.368,33.361V16.498h6.43v16.863H264.368z"/>
	<path fill="#1D1D1B" d="M272.863,33.361v-4.285h13.293c0.34,0,0.565-0.084,0.677-0.256c0.109-0.17,0.165-0.449,0.165-0.842
		c0-0.34-0.063-0.582-0.191-0.727c-0.127-0.145-0.345-0.217-0.65-0.217h-8.42c-1.616,0-2.832-0.311-3.648-0.932
		c-0.816-0.621-1.225-1.483-1.225-2.589v-3.036c0-0.714,0.081-1.326,0.243-1.836c0.161-0.511,0.445-0.922,0.854-1.237
		c0.408-0.315,0.974-0.545,1.696-0.689c0.724-0.145,1.646-0.217,2.769-0.217h12.936v4.236h-11.659c-0.342,0-0.563,0.084-0.665,0.255
		c-0.102,0.17-0.152,0.425-0.152,0.765c0,0.341,0.068,0.597,0.204,0.767s0.374,0.254,0.715,0.254h8.292
		c1.735,0,2.985,0.35,3.75,1.047c0.766,0.698,1.148,1.683,1.148,2.96v2.551c0,0.697-0.09,1.297-0.269,1.797
		c-0.178,0.504-0.477,0.92-0.893,1.252c-0.417,0.332-0.961,0.578-1.633,0.74c-0.672,0.16-1.502,0.24-2.487,0.24H272.863z"/>
</g>
<path fill="none" stroke="#1D1D1B" stroke-width="0.8504" stroke-miterlimit="10" d="M307.589,26.182
	c0,8.924-7.234,16.158-16.159,16.158H28.569c-8.924,0-16.159-7.234-16.159-16.158v-2.363c0-8.923,7.235-16.158,16.159-16.158h262.86
	c8.925,0,16.159,7.235,16.159,16.158V26.182z"/>
</svg>
