<?xml version="1.0" encoding="utf-8"?>
<!-- Generator: Adobe Illustrator 19.2.1, SVG Export Plug-In . SVG Version: 6.00 Build 0)  -->
<svg version="1.1" id="layer" xmlns="http://www.w3.org/2000/svg" xmlns:xlink="http://www.w3.org/1999/xlink" x="0px" y="0px"
	 viewBox="0 0 652 652" style="enable-background:new 0 0 652 652;" xml:space="preserve">
<style type="text/css">
	.st0{fill:#005AA2;}
</style>
<g transform="translate(-3 -1)">
	<path class="st0" d="M31.5,220.3H90c4.7,0,5.3,3.7,5.4,6.7v81.8c0,3.2,0,6.2,1.9,7.9c1.1,1.2,2.7,1.8,4.3,1.7h7.8h1.3
		c1.5-0.8,2.7-2.1,3.4-3.7l16.9-31.7c0.8-1.6,2-2.9,3.6-3.8c1.9-0.9,4-1.3,6-1.3H272c3.3-0.1,6,2.5,6.1,5.8c0,0.3,0,0.6,0,0.8v74.8
		c-0.5,3.5,1.9,6.7,5.4,7.2c0.1,0,0.3,0,0.4,0h17c3.7,0,6.7-3,6.7-6.7c0,0,0-0.1,0-0.1v-75.8c-0.1-3.5,2.6-6.5,6.1-6.6
		c0.2,0,0.3,0,0.5,0h127c3.8,0.3,7.2,2.5,9.1,5.8l24.8,34.3c2.1,2.5,3.4,5.6,3.8,8.8c0.4,2.5,0.4,5,0,7.5V361c0,2.7,0,3,1.8,4
		s1.9,0.8,3.5,1h10.6c0.7,0.2,1.5,0.2,2.2,0c0.8-0.2,1.4-0.6,1.9-1.2l19.9-28.5c1.1-1.3,1.6-3.1,1.3-4.8c0-2.1-1.6-2.5-3.1-2.8
		h-24.5c-3.7,0.5-7.1-2-7.6-5.7c-0.1-0.6-0.1-1.2,0-1.8v-38.4c0-3.2,2.6-5.5,7.2-5.5h119.5c3.2-0.4,6.1,1.8,6.6,5
		c0,0.4,0.1,0.7,0,1.1v36c0.2,1.4,0,2.8-0.6,4c-0.6,1.4-1.4,2.7-2.5,3.9l-20.6,29c-6.9,8.4,0,9.8,3.2,9.7h20.7
		c1.7-0.4,3.5,0.1,4.7,1.3c1.2,1.1,1.8,2.6,1.7,4.3v44c0.4,4-2.6,7.5-6.6,7.9c-0.2,0-0.3,0-0.5,0h-204c-3.5,0.5-6.7-1.9-7.2-5.4
		c0-0.3-0.1-0.6-0.1-1v-79.4c0.1-1.4-0.3-2.8-1.1-3.9c-0.7-0.9-1.7-1.4-2.8-1.5h-19.7c-1.3-0.1-2.6,0.4-3.5,1.3
		c-1,1.1-1.5,2.6-1.2,4V417c0.2,3.4-2.3,6.3-5.7,6.5c-0.4,0-0.9,0-1.3-0.1H251.9c-2.3,0.4-4.6-0.1-6.6-1.3c-1.6-0.8-3-2.1-3.9-3.7
		l-32.3-44.7c-0.9-1.6-1.5-3.3-1.8-5c-0.2-1.6-0.2-3.2,0-4.8v-28.6c0.1-0.7,0.1-1.4,0-2.1c-0.4-2.2-2.2-3.8-4.4-4h-14
		c-0.9,0.1-1.7,0.4-2.5,0.8c-0.8,0.7-1.5,1.5-2,2.3l-7.7,10.5c-0.7,1-1.1,2.2-1.3,3.4c-0.2,1.8,0.3,3.5,1.5,4.9l45.8,62.9
		c4.4,4.8,2.9,9.2-1.6,9.7h-79.8c-1.7-0.2-3.3-0.9-4.6-2c-1.1-0.8-2-1.7-2.7-2.8L113.5,378c-0.5-1.3-1.5-2.3-2.7-2.8
		c-0.8-0.2-1.7-0.2-2.6,0h-7.9c-1.4-0.1-2.7,0.4-3.6,1.5c-0.9,1-1.4,2.3-1.3,3.6c0,0,0,37.4,0,37.2c0,5.4-3.4,6.4-6.6,6.5H30.2
		c-1.6-0.2-2.9-1-3.8-2.3c-1.2-1.3-1.8-3.1-1.6-4.9V227.2C24.9,222.6,26.7,220,31.5,220.3z"/>
	<path class="st0" d="M206.9,227.1v37.1c-0.1,1.5,0.6,2.9,1.7,3.8c0.9,1,2.3,1.6,3.7,1.5h59.5c2.9,0.3,5.6-1.6,6.3-4.5v-37.9
		c0-1.5-0.6-3-1.7-4c-1.2-1-2.8-1.4-4.4-1.1h-59.6c-1.4-0.2-2.7,0.3-3.7,1.2C207.5,224.1,206.8,225.6,206.9,227.1z"/>
	<path class="st0" d="M307.7,227.1v37.1c-0.2,1.5,0.4,2.9,1.6,3.8c0.9,1,2.3,1.6,3.7,1.5h59.5c1.7,0.2,3.4-0.4,4.6-1.7
		c1-0.9,1.6-2.1,1.8-3.4v-37.4c0-1.5-0.7-3-1.8-4c-1.2-1-2.8-1.4-4.4-1.1H313c-1.4-0.2-2.7,0.3-3.7,1.2
		C308.2,224.2,307.6,225.6,307.7,227.1z"/>
</g>
</svg>
