<?xml version="1.0" encoding="UTF-8"?>
<svg id="Warstwa_1" xmlns="http://www.w3.org/2000/svg" version="1.1" xmlns:xlink="http://www.w3.org/1999/xlink" viewBox="0 0 320 115">
  <!-- Generator: Adobe Illustrator 30.1.0, SVG Export Plug-In . SVG Version: 2.1.1 Build 136)  -->
  <defs>
    <style>
      .st0 {
        fill: #425273;
      }

      .st1 {
        mask: url(#mask);
      }

      .st2 {
        fill: #d9d9d9;
      }
    </style>
    <mask id="mask" x="0" y="0" width="320" height="115" maskUnits="userSpaceOnUse">
      <g id="mask0_31_1108">
        <rect class="st2" y="0" width="320" height="115"/>
      </g>
    </mask>
  </defs>
  <g class="st1">
    <g>
      <path class="st0" d="M127,49.6h-2.7v5.6h-2v-14.3h4.3c2.9,0,4.7,1.9,4.7,4.4s-2,4.3-4.3,4.3ZM126.3,42.7h-2v5h2.2c1.7,0,2.8-.9,2.8-2.6s-1.1-2.5-3-2.5Z"/>
      <path class="st0" d="M141.2,55.5c-4.1,0-7.4-3.1-7.4-7.5s3.1-7.4,7.3-7.4,7.4,3.2,7.4,7.4-3.3,7.4-7.3,7.4ZM141.1,42.6c-3.1,0-5.3,2.3-5.3,5.4s2.5,5.5,5.3,5.5,5.3-2.1,5.3-5.6-2.2-5.4-5.4-5.4Z"/>
      <path class="st0" d="M151.7,55.2v-14.3h2v12.5h5.4v1.8h-7.4Z"/>
      <path class="st0" d="M165.6,55.4c-1.4,0-2.9-.4-4.2-1.4l1.1-1.5c.8.7,2,1.1,3,1.1,1.5,0,2.5-.7,2.5-2s-1.1-1.9-2.4-2.5c-2-1.1-4.1-2-4.1-4.7s1.6-3.7,4.2-3.7,2.8.4,3.9,1.2l-1.1,1.6c-.9-.6-1.6-.9-2.8-.9s-2.1.6-2.1,1.7c0,1.6,1.4,2.1,3.1,3,1.6.8,3.4,1.9,3.4,4.2s-2,4-4.4,4Z"/>
      <path class="st0" d="M181.5,55.2l-5.8-6.6-.7.7v5.9h-2v-14.3h2v5.9l5.6-5.9h2.5l-6.1,6.3,7,8h-2.5Z"/>
      <path class="st0" d="M188.6,40.9h-2v14.4h2v-14.4Z"/>
      <path class="st0" d="M200.4,42.7v12.5h-2v-12.5h-2.9v-1.8h7.9v1.8h-3Z"/>
      <path class="st0" d="M214.1,55.2l-1.7-4.6h-4.6l-1.7,4.6h-2.1l5.5-14.4h1.3l5.5,14.4h-2.2ZM210.2,44.7c0-.2-.1-.4-.1-.4,0,0,0,.2,0,.4l-1.5,4h3.2l-1.5-4Z"/>
      <path class="st0" d="M223.5,55.2h-4.3v-14.4h3.8c2.4,0,4.2,1.5,4.2,3.7s-.7,2.7-1.7,3.3c1.1.3,2.4,1.7,2.4,3.4,0,1.8-1.3,3.9-4.4,3.9ZM222.6,42.7h-1.5v4.5h1.3c2.1,0,2.6-1.3,2.6-2.5s-.9-2-2.5-2ZM223.4,49.1h-2.3v4.3h2.1c1.8,0,2.6-.9,2.6-2.2s-.9-2.1-2.4-2.1Z"/>
      <path class="st0" d="M237.8,55.5c-4.1,0-7.4-3.1-7.4-7.5s3.1-7.4,7.3-7.4,7.4,3.2,7.4,7.4c0,4.2-3.3,7.4-7.3,7.4ZM237.7,42.6c-3.1,0-5.3,2.3-5.3,5.4s2.5,5.5,5.3,5.5,5.3-2.1,5.3-5.6-2.2-5.4-5.4-5.4Z"/>
      <path class="st0" d="M256.1,55.2l-5.8-6.7v6.7h-2v-14.3h4.6c2.7,0,4.5,1.9,4.5,4.2s-2,4.1-4.1,4.1l5.3,6h-2.5ZM252.7,42.7h-2.3v4.9h2.3c1.8,0,2.8-1.1,2.8-2.6s-.9-2.3-2.8-2.3Z"/>
      <path class="st0" d="M125.9,74.8c-1.5,0-2.9-.4-4.2-1.4l1.1-1.5c.8.7,2,1.1,3,1.1,1.5,0,2.5-.6,2.5-2s-1.1-1.9-2.4-2.5c-2-1.1-4.1-2-4.1-4.7s1.6-3.7,4.1-3.7,2.8.4,3.9,1.2l-1.1,1.6c-.9-.6-1.6-.9-2.8-.9s-2.1.6-2.1,1.7c0,1.6,1.4,2.1,3.1,3,1.6.8,3.4,1.9,3.4,4.2s-2,4-4.4,4Z"/>
      <path class="st0" d="M135.6,72.3c0,.2-.2.3-.2.3,0,0,.2,0,.4,0h7.2v1.9h-11l7.5-12.1c.1-.2.3-.4.3-.4,0,0-.2,0-.4,0h-6.1v-1.9h10l-7.6,12.2Z"/>
      <path class="st0" d="M152,67.9v6.7h-2v-6.7l-4.9-7.7h2.3l3.5,5.4c0,.1.2.4.2.4,0,0,.1-.3.2-.4l3.5-5.3h2.2l-5,7.7Z"/>
      <path class="st0" d="M169.5,74.5l-7.5-10.4c0-.1-.2-.4-.2-.4,0,0,0,.3,0,.5v10.3h-2v-14.4h1.7l7.4,10.2c.1.2.3.4.3.4,0,0,0-.3,0-.5v-10.1h2v14.4h-1.6Z"/>
      <path class="st0" d="M181.6,74.8c-4.1,0-7.4-3.1-7.4-7.5s3.1-7.4,7.3-7.4,7.4,3.2,7.4,7.4-3.3,7.4-7.3,7.4ZM181.6,61.9c-3.1,0-5.3,2.3-5.3,5.4s2.5,5.5,5.3,5.5,5.3-2.1,5.3-5.6-2.2-5.4-5.4-5.4Z"/>
      <path class="st0" d="M203.2,74.5h-1.3l-2.9-9.6c-.1-.4-.2-.7-.2-.7,0,0,0,.4-.2.7l-3,9.6h-1.3l-3.8-14.4h1.9l2.5,9.4c0,.3.1.6.1.6,0,0,0-.4.2-.6l3-9.4h1.3l2.9,9.5c0,.2.1.6.1.6,0,0,0-.4.1-.6l2.7-9.5h1.9l-4,14.4Z"/>
      <path class="st0" d="M216.1,67.9v6.7h-2v-6.7l-4.9-7.7h2.3l3.5,5.4c0,.1.2.4.2.4,0,0,.1-.3.2-.4l3.5-5.3h2.2l-5,7.7Z"/>
      <path class="st0" d="M227,66.7h-4.2v1.7h4.2v-1.7Z"/>
      <path class="st0" d="M243.1,74.5h-1.3l-2.9-9.6c-.1-.4-.2-.7-.2-.7,0,0,0,.4-.2.7l-3,9.6h-1.3l-3.8-14.4h1.9l2.5,9.4c0,.3.1.6.1.6,0,0,0-.4.2-.6l3-9.4h1.3l2.9,9.5c0,.2.1.6.1.6,0,0,0-.4.1-.6l2.7-9.5h1.9l-4,14.4Z"/>
      <path class="st0" d="M257.8,74.5l-1.7-4.7h-4.6l-1.7,4.7h-2.1l5.5-14.4h1.3l5.5,14.4h-2.2ZM253.9,64c0-.2-.1-.4-.1-.4,0,0,0,.2,0,.4l-1.5,4h3.2l-1.5-4Z"/>
      <path class="st0" d="M268.7,74.8c-3.6,0-7.3-3-7.3-7.4s3.3-7.4,7.3-7.4,3.9.8,5.3,2l-1.2,1.5c-1.2-1-2.5-1.5-4.1-1.5-2.9,0-5.2,2.2-5.2,5.5s2.4,5.5,5.3,5.5,3.7-1.2,4.2-2.9h-4.3v-1.8h6.6c0,3.9-3.1,6.7-6.6,6.7Z"/>
      <path class="st0" d="M285.1,74.8c-4.1,0-7.4-3.1-7.4-7.5s3.1-7.4,7.3-7.4,7.4,3.2,7.4,7.4-3.3,7.4-7.3,7.4ZM285,61.9c-3.1,0-5.2,2.3-5.2,5.4s2.5,5.5,5.3,5.5,5.3-2.1,5.3-5.6-2.2-5.4-5.4-5.4Z"/>
      <path class="st0" d="M305.4,74.5l-7.5-10.4c0-.1-.2-.4-.2-.4,0,0,0,.3,0,.5v10.3h-2v-14.4h1.7l7.4,10.2c.1.2.3.4.3.4,0,0,0-.3,0-.5v-10.1h2v14.4h-1.6Z"/>
      <path class="st0" d="M62.6,63c0-.2,0-.3,0-.5h1.4c0,.2,0,.3.1.5.6,2.6,2.2,5.1,4.6,6.7,0,0,0,0,.1,0,1.4.9,3,1.4,4.6,1.6.4,0,.8,0,1.3,0,.8,0,1.6,0,2.3-.2l7.2,6.2,1.2,1c.5.4,1.1.6,1.7.7h10.1c0,.1,0,.1,0,.1.6,0,1.2-.2,1.7-.6l7.8-6.4c.5-.4.8-1,.9-1.6l1.9-9.9c.1-.6,0-1.3-.3-1.8l-5-8.8c-.3-.5-.8-1-1.4-1.2l-9.6-3.8s-.1,0-.3,0-.5,0-.9.4c-.6.5,0,1.4,0,1.4,1.3,2,4.4,4.2,5.2,7.1,0,.1,0,.2.1.4.1.4.2.7.2,1.1.1.9,0,1.8-.3,2.7-.6,1.9-2.2,3.5-4.2,4.1-.5.2-1.1.2-1.6.2-2.7,0-5.3-1.9-6.1-4.7,0,0,0,0,0,0s0,0,0,0c-.3-1-.7-2-1.2-2.8-2-3.3-5.6-5.4-9.5-5.4s-.9,0-1.4,0c-.5,0-1,.2-1.6.3-1.1.3-2.1.8-3,1.4-2.2,1.4-3.8,3.6-4.5,6.1,0,.2-.1.4-.2.6h-1.7c0,0,0-.2,0-.2,0-.1,0-.3-.1-.4-.7-2.4-2.2-4.5-4.3-6-1-.7-2.1-1.2-3.3-1.5-.4-.1-.9-.2-1.3-.3-.5,0-1.1-.1-1.6-.1-3.7,0-7.2,1.9-9.2,5-.6,1-1.1,2-1.5,3.2,0,0,0,0,0,0,0,0,0,0,0,0-.8,2.8-3.3,4.7-6.1,4.7s-1.1,0-1.6-.2c-2.1-.6-3.6-2.2-4.2-4.1-.3-.8-.4-1.7-.3-2.7,0-.4.1-.7.2-1.1,0-.1,0-.2.1-.4.8-2.9,4-5.1,5.2-7.1,0,0,.5-.9,0-1.4-.3-.3-.7-.4-.9-.4s-.3,0-.3,0l-9.6,3.8c-.6.2-1,.6-1.4,1.2l-5,8.8c-.3.6-.4,1.2-.3,1.8l1.9,9.9c.1.6.4,1.2.9,1.6l7.8,6.4c.5.4,1.1.6,1.7.6h10.1c.6-.1,1.2-.4,1.7-.8l1.4-1.2,7-6c.8.2,1.5.2,2.3.2s1,0,1.5-.1c1.5-.2,3.1-.8,4.5-1.7,0,0,0,0,.1,0,.1,0,.2-.1.3-.2,0,0,0,0,.1-.1,0,0,.2-.1.3-.2,0,0,0,0,.1-.1,0,0,.2-.1.2-.2,0,0,0,0,.1-.1,0,0,.2-.2.2-.2,0,0,0,0,.1-.1,0,0,.2-.2.3-.3,0,0,0,0,0,0,.2-.2.4-.5.6-.8,0,0,0,0,0,0,0-.1.2-.2.2-.4,0,0,0,0,0,0,0-.1.1-.2.2-.3,0,0,0,0,0,0,0-.1.1-.2.2-.4,0,0,0,0,0,0,.3-.6.6-1.2.8-1.9h0c0-.2,0-.3.1-.5,0,0,0,0,0,0v-.5ZM53.6,64.9c-.5.2-1,.3-1.6.3s-.9,0-1.3-.2c-2.6-.7-4.1-3.5-3.3-6.1.6-2.2,2.6-3.7,4.8-3.7s.9,0,1.3.2c0,0,.1,0,.2,0,1.3.4,2.3,1.3,2.8,2.4h-1.9c-.3-.3-.6-.6-1-.7-.2,0-.4-.2-.6-.2-.3,0-.6-.1-.9-.1-1.5,0-2.8,1.1-3.2,2.6-.5,1.8.5,3.7,2.3,4.2.3,0,.6.1.9.1.6,0,1.1-.2,1.6-.4.3-.2.6-.4.9-.7h1.9c-.6,1.1-1.6,2-2.8,2.4ZM76.1,65c-.4.1-.9.2-1.3.2s-.9,0-1.3-.2c-1.3-.4-2.4-1.2-3-2.5h1.9c.3.3.7.6,1.1.8.4.2.9.3,1.3.3s.6,0,.9-.1c.8-.2,1.5-.8,2-1.6.4-.8.5-1.7.3-2.6-.4-1.5-1.8-2.6-3.3-2.6s-.6,0-.9.1c-.1,0-.2,0-.3.1-.5.2-.9.5-1.2.9h-1.9c.6-1.2,1.6-2.1,3-2.5,0,0,0,0,0,0,.4-.1.8-.2,1.2-.2,2.2,0,4.1,1.5,4.8,3.7.7,2.7-.8,5.4-3.3,6.1Z"/>
      <path class="st0" d="M61,66.7h0c0,0,0,0,0,0Z"/>
      <path class="st0" d="M63.4,55.4c1.1-2.6,3.1-4.8,5.5-6.1v-.4c0-.5-.4-.9-.9-.9h-9c-.5,0-.9.4-.9.9v.5c2.4,1.3,4.2,3.4,5.3,6Z"/>
      <path class="st0" d="M62.4,57.2c0,.1,0,.3.1.4,0-.1,0-.3-.1-.4Z"/>
      <path class="st0" d="M61.3,66.3h0c0,0,0,0,0,0Z"/>
      <path class="st0" d="M61.5,65.9h0c0,0,0,0,0,0Z"/>
      <path class="st0" d="M49.8,48h-6.1c-.5,0-.9.4-.9.9v3c1.9-2,4.3-3.4,7-3.9Z"/>
      <path class="st0" d="M50.2,72.9l-7.4,6.4v3.8c0,.5.4.9.9.9h9c.5,0,.9-.4.9-.9v-10.1c-.5,0-1,0-1.5,0s-1.3,0-1.9-.1Z"/>
      <path class="st0" d="M84.3,52.1v-3.2c0-.5-.4-.9-.9-.9h-6.4c2.8.5,5.4,2,7.3,4.1Z"/>
      <path class="st0" d="M74.8,73c-.4,0-.8,0-1.3,0v10.1c0,.5.4.9.9.9h9c.5,0,.9-.4.9-.9v-3.6l-7.7-6.6c-.6,0-1.2.1-1.9.1Z"/>
      <path class="st0" d="M58,69.7s0,0,.1,0c0,0,0,0-.1,0Z"/>
      <path class="st0" d="M61.5,65.9c0,.1-.1.2-.2.4,0-.1.1-.3.2-.4Z"/>
      <path class="st0" d="M68.9,42.7h-10.8v1.8h10.8v-1.8Z"/>
      <path class="st0" d="M59,39.3h9c.5,0,.9-.4.9-.9v-5.5c0-.5-.4-.9-.9-.9h-9c-.5,0-.9.4-.9.9v5.5c0,.5.4.9.9.9Z"/>
      <path class="st0" d="M56.6,89.1l6.9,6.9,7-6.9h-13.9Z"/>
      <path class="st0" d="M68.9,30.1h1.5l-7-6.9-6.9,6.9h12.4Z"/>
      <path class="st0" d="M53.6,42.7h-10.8v1.8h10.8v-1.8Z"/>
      <path class="st0" d="M43.7,39.3h9c.5,0,.9-.4.9-.9v-5.5c0-.5-.4-.9-.9-.9h-9c-.5,0-.9.4-.9.9v5.5c0,.5.4.9.9.9Z"/>
      <path class="st0" d="M41.2,85.8l6.9,7,7-7h-13.9Z"/>
      <path class="st0" d="M53.6,30.1h1.5l-7-6.9-6.9,6.9h12.4Z"/>
      <path class="st0" d="M84.3,42.7h-10.8v1.8h10.8v-1.8Z"/>
      <path class="st0" d="M74.4,39.3h9c.5,0,.9-.4.9-.9v-5.5c0-.5-.4-.9-.9-.9h-9c-.5,0-.9.4-.9.9v5.5c0,.5.4.9.9.9Z"/>
      <path class="st0" d="M72,85.8l6.9,7,7-7h-13.9Z"/>
      <path class="st0" d="M84.3,30.1h1.5l-7-6.9-6.9,6.9h12.4Z"/>
      <path class="st0" d="M68.9,72.2v-.6c-.3-.2-.7-.4-1-.6-2-1.3-3.6-3.2-4.5-5.4-1,2.2-2.5,4.1-4.5,5.4-.2.2-.5.3-.7.5v.7h10.8Z"/>
      <path class="st0" d="M58.1,84v2.5c0,.5.4.9.9.9h9c.5,0,.9-.4.9-.9v-2.5h-10.8Z"/>
      <path class="st0" d="M61.6,76.8c-.2,0-.4.2-.4.4v.5c0,.2.2.4.4.4s0,0,0,0h0c0,0,.1,0,.2-.1,0,0,0-.1,0-.2v-.5c0-.2-.2-.4-.4-.4Z"/>
      <path class="st0" d="M68.1,76.8c-.2,0-.4.2-.4.4v1.9c0,.2.2.4.4.4s.4-.2.4-.4v-1.9c0-.2-.2-.4-.4-.4Z"/>
      <path class="st0" d="M70.1,74.3h-13.1c-.5,0-.9.4-.9.9v5.7c0,.5.4.9.9.9h13.1c.5,0,.9-.4.9-.9v-5.7c0-.5-.4-.9-.9-.9ZM59.3,80.1h-.8v-2.9h0s-.7-.2-.7-.2l.7-1.1h.7v4.1ZM62.7,79c0,.6-.5,1.1-1.1,1.1s-.9-.3-1.1-.8h0c0,0,.7-.3.7-.3h0c0,.2.2.3.3.3s.4-.2.4-.4v-.3s0,0-.1,0c0,0-.1,0-.2,0-.6,0-1.1-.5-1.1-1.1v-.5c0-.6.5-1.1,1.1-1.1s1.1.5,1.1,1.1v1.9ZM65.9,80.1h-2.2v-.9l1.4-1.8s0,0,0,0v-.2c0-.2-.2-.4-.4-.4s-.3,0-.3.2h0s-.7-.2-.7-.2h0c.1-.5.6-.8,1.1-.8s1.1.5,1.1,1.1v.2c0,.1,0,.2,0,.3,0,0,0,0,0,0,0,.1-.1.2-.2.4l-1.1,1.3h1.4v.8ZM69.2,79c0,.6-.5,1.1-1.1,1.1s-1.1-.5-1.1-1.1v-1.9c0-.6.5-1.1,1.1-1.1s1.1.5,1.1,1.1v1.9Z"/>
    </g>
  </g>
</svg>